<?xml version="1.0" encoding="UTF-8" standalone="no"?>
<svg
   xmlns:dc="http://purl.org/dc/elements/1.1/"
   xmlns:cc="http://creativecommons.org/ns#"
   xmlns:rdf="http://www.w3.org/1999/02/22-rdf-syntax-ns#"
   xmlns:svg="http://www.w3.org/2000/svg"
   xmlns="http://www.w3.org/2000/svg"
   xmlns:sodipodi="http://sodipodi.sourceforge.net/DTD/sodipodi-0.dtd"
   xmlns:inkscape="http://www.inkscape.org/namespaces/inkscape"
   version="1.1"
   id="Layer_1"
   x="0px"
   y="0px"
   viewBox="4.8 -9.98 61.634377 76.800001"
   enable-background="new 0 0 96 99.8"
   xml:space="preserve"
   height="57.002895"
   width="64.202477"
   inkscape:version="0.48.2 r9819"
   sodipodi:docname="delivery.svg"><metadata
   id="metadata23"><rdf:RDF><cc:Work
       rdf:about=""><dc:format>image/svg+xml</dc:format><dc:type
         rdf:resource="http://purl.org/dc/dcmitype/StillImage" /></cc:Work></rdf:RDF></metadata><defs
   id="defs21" /><sodipodi:namedview
   pagecolor="#ffffff"
   bordercolor="#666666"
   borderopacity="1"
   objecttolerance="10"
   gridtolerance="10"
   guidetolerance="10"
   inkscape:pageopacity="0"
   inkscape:pageshadow="2"
   inkscape:window-width="640"
   inkscape:window-height="480"
   id="namedview19"
   showgrid="false"
   inkscape:zoom="2.36"
   inkscape:cx="35.626809"
   inkscape:cy="22.871669"
   inkscape:window-x="567"
   inkscape:window-y="123"
   inkscape:window-maximized="0"
   inkscape:current-layer="Layer_1"
   fit-margin-top="0"
   fit-margin-left="0"
   fit-margin-right="0"
   fit-margin-bottom="0" />
<g
   id="g3"
   transform="translate(-12.514322,-21.791041)">
	<path
   d="m 83.6,73 -2.6,2.9 2.5,2.3 H 67.4 c -1,0.8 -2,1.6 -3.1,2.2 -1.4,0.9 -2.8,1.6 -4.2,2.2 h 24 l -2.9,2.9 2.4,2.7 7.7,-7.8 -7.7,-7.4 z"
   id="path5"
   inkscape:connector-curvature="0"
   style="fill:#000000" />
	<path
   d="m 18.1,47.6 -0.9,-2.3 c -2.6,11.3 1.4,23.1 10.2,30.4 h 8 C 24.4,70.3 18.7,58 21.5,46.3 l -3.4,1.3 z"
   id="path7"
   inkscape:connector-curvature="0"
   style="fill:#000000" />
	<path
   d="M 29,41.6 27.4,38.1 24,39.6 C 30.4,27.9 44.9,22.8 57.4,28.2 69.3,33.4 75.3,46.3 72.3,58.5 l 3.1,-1.2 1,2.7 c 1,-3.6 1.2,-7.3 0.8,-11 6.8,-2.5 11.5,-9 11.5,-16.4 0,-9.6 -7.8,-17.4 -17.4,-17.4 -2.1,0 -4.1,0.4 -6.1,1.1 l 1.2,-3.5 -3.4,-1.4 -3.5,10.4 10.2,3.4 1,-3.7 -3.2,-1 -0.1,-0.2 c 1.3,-0.4 2.6,-0.6 3.9,-0.6 7.1,0 12.9,5.8 12.9,12.9 0,5.2 -3.1,9.8 -7.8,11.8 C 74.1,35.7 68,28 59.1,24.1 44.4,17.8 27.3,23.9 19.9,38 l -1.4,-3.7 -3.5,1.1 4,10.2 10,-4 z"
   id="path9"
   inkscape:connector-curvature="0"
   style="fill:#000000" />
	<path
   d="m 62.9,78.2 c 4.5,-2.7 8.2,-6.6 10.9,-11.5 l 1.4,3.6 3.5,-1.1 -4,-10.2 -10,3.9 1.6,3.5 3.6,-1.5 c 0,0 0,0.1 -0.1,0.1 0,0 0,0 0,0 -0.1,0.2 -0.3,0.4 -0.4,0.7 0,0 0,0.1 -0.1,0.1 -0.1,0.2 -0.3,0.4 -0.4,0.7 0,0 -0.1,0.1 -0.1,0.1 -0.1,0.2 -0.3,0.4 -0.4,0.6 0,0 0,0 0,0.1 -0.1,0.2 -0.3,0.4 -0.4,0.6 0,0 0,0.1 -0.1,0.1 -0.2,0.2 -0.3,0.4 -0.5,0.6 0,0 -0.1,0.1 -0.1,0.1 -0.2,0.2 -0.3,0.4 -0.5,0.6 0,0 0,0 -0.1,0.1 -0.2,0.2 -0.3,0.4 -0.5,0.6 0,0 0,0 -0.1,0.1 -0.2,0.2 -0.4,0.4 -0.5,0.6 0,0 -0.1,0.1 -0.1,0.1 -0.2,0.2 -0.4,0.4 -0.6,0.5 0,0 0,0 -0.1,0.1 -0.2,0.2 -0.4,0.3 -0.6,0.5 0,0 0,0 0,0 -0.2,0.2 -0.4,0.3 -0.6,0.5 0,0 -0.1,0.1 -0.1,0.1 -0.2,0.2 -0.4,0.3 -0.6,0.5 0,0 -0.1,0 -0.1,0.1 -0.2,0.2 -0.4,0.3 -0.6,0.5 0,0 0,0 0,0 -0.2,0.2 -0.4,0.3 -0.7,0.4 0,0 -0.1,0 -0.1,0.1 -0.2,0.1 -0.4,0.3 -0.6,0.4 0,0 -0.1,0 -0.1,0.1 -0.5,0.3 -0.9,0.5 -1.4,0.8 0,0 -0.1,0 -0.1,0 -0.2,0.1 -0.5,0.2 -0.7,0.4 0,0 -0.1,0 -0.1,0 -0.5,0.2 -1,0.5 -1.5,0.7 0,0 0,0 -0.1,0 -0.2,0.1 -0.5,0.2 -0.7,0.3 0,0 -0.1,0 -0.1,0 -0.5,0.2 -1,0.4 -1.5,0.5 0,0 0,0 0,0 -0.3,0.1 -0.5,0.1 -0.8,0.2 0,0 -0.1,0 -0.1,0 -0.3,0.1 -0.5,0.1 -0.8,0.2 0,0 0,0 0,0 -0.3,0.1 -0.5,0.1 -0.8,0.2 0,0 0,0 0,0 -0.3,0.1 -0.5,0.1 -0.8,0.1 0,0 -0.1,0 -0.1,0 -0.3,0 -0.5,0.1 -0.8,0.1 0,0 0,0 0,0 -0.3,0 -0.6,0.1 -0.8,0.1 0,0 0,0 0,0 0,0 -3.3,0 -5.1,0 H 31 4.8 v 2.2 2.2 H 46 49.9 c 3,-0.2 6.1,-1 8.9,-2.2 1.5,-0.6 2.9,-1.4 4.2,-2.2 h -0.1 z"
   id="path11"
   inkscape:connector-curvature="0"
   style="fill:#000000" />
	<path
   d="m 45.9,82.7 c -0.6,0 0.7,0 0,0 l 0,0 z"
   id="path13"
   inkscape:connector-curvature="0"
   style="fill:#000000" />
</g>
</svg>