<?xml version="1.0" encoding="UTF-8" standalone="no"?>
<svg
   xmlns:dc="http://purl.org/dc/elements/1.1/"
   xmlns:cc="http://creativecommons.org/ns#"
   xmlns:rdf="http://www.w3.org/1999/02/22-rdf-syntax-ns#"
   xmlns:svg="http://www.w3.org/2000/svg"
   xmlns="http://www.w3.org/2000/svg"
   xmlns:sodipodi="http://sodipodi.sourceforge.net/DTD/sodipodi-0.dtd"
   xmlns:inkscape="http://www.inkscape.org/namespaces/inkscape"
   version="1.1"
   id="Layer_1"
   x="0px"
   y="0px"
   width="74.074074"
   height="71.012589"
   viewBox="5 -9.5867 74.074074 95.866998"
   enable-background="new 0 0 100 95.867"
   xml:space="preserve"
   inkscape:version="0.48.2 r9819"
   sodipodi:docname="teamwork.svg"><metadata
   id="metadata25"><rdf:RDF><cc:Work
       rdf:about=""><dc:format>image/svg+xml</dc:format><dc:type
         rdf:resource="http://purl.org/dc/dcmitype/StillImage" /></cc:Work></rdf:RDF></metadata><defs
   id="defs23" /><sodipodi:namedview
   pagecolor="#ffffff"
   bordercolor="#666666"
   borderopacity="1"
   objecttolerance="10"
   gridtolerance="10"
   guidetolerance="10"
   inkscape:pageopacity="0"
   inkscape:pageshadow="2"
   inkscape:window-width="640"
   inkscape:window-height="480"
   id="namedview21"
   showgrid="false"
   inkscape:zoom="2.461744"
   inkscape:cx="40.74074"
   inkscape:cy="30.180351"
   inkscape:window-x="174"
   inkscape:window-y="37"
   inkscape:window-maximized="0"
   inkscape:current-layer="Layer_1"
   fit-margin-top="0"
   fit-margin-left="0"
   fit-margin-right="0"
   fit-margin-bottom="0" />
<g
   id="g3"
   transform="translate(-8.1967852,-9.5867)">
	<path
   d="m 96.161,71.862 c 0.397,-2.478 0.034,-4.495 -1.104,-5.983 -0.138,-0.182 -0.288,-0.332 -0.438,-0.486 2.289,-0.55 4.002,-2.603 4.002,-5.057 V 5.218 C 98.622,2.341 96.281,0 93.404,0 H 5.216 C 2.34,0 0,2.341 0,5.218 v 55.117 c 0,2.687 2.051,4.879 4.666,5.161 -0.25,1.102 -0.277,2.345 -0.036,3.753 0.042,0.247 0.171,0.454 0.343,0.611 -1.336,0.944 -2.218,2.497 -2.218,4.254 v 20.67 c 0,0.599 0.484,1.083 1.083,1.083 0.598,0 1.083,-0.484 1.083,-1.083 v -20.67 c 0,-1.684 1.37,-3.051 3.053,-3.051 h 31.692 c 1.683,0 3.051,1.367 3.051,3.051 v 20.67 c 0,0.599 0.484,1.083 1.083,1.083 0.599,0 1.083,-0.484 1.083,-1.083 v -20.67 c 0,-2.312 -1.522,-4.254 -3.607,-4.938 2.248,-0.249 4.662,-0.909 6.751,-2.361 0.528,-0.368 0.977,-0.815 1.423,-1.264 h 13.264 c 0.011,0.035 0.011,0.071 0.021,0.107 -0.643,0.334 -1.332,0.835 -1.907,1.581 -1.104,1.43 -1.467,3.362 -1.144,5.715 -1.098,0.956 -1.808,2.349 -1.808,3.916 v 17.862 c 0,0.599 0.484,1.083 1.082,1.083 0.599,0 1.083,-0.484 1.083,-1.083 V 76.871 c 0,-1.684 1.367,-3.051 3.051,-3.051 h 31.691 c 1.684,0 3.054,1.367 3.054,3.051 v 17.862 c 0,0.599 0.483,1.083 1.082,1.083 0.599,0 1.081,-0.484 1.081,-1.083 V 76.871 c 0,-2.395 -1.634,-4.4 -3.839,-5.009 z M 5.721,63.122 C 5.645,63.224 5.6,63.344 5.531,63.45 5.429,63.418 5.328,63.387 5.216,63.387 3.533,63.387 2.165,62.019 2.165,60.336 V 5.218 c 0,-1.683 1.368,-3.053 3.051,-3.053 h 88.188 c 1.683,0 3.053,1.37 3.053,3.053 v 55.117 c 0,1.683 -1.37,3.051 -3.053,3.051 h -1.806 c 0.136,-1.395 0.095,-3.074 -0.26,-5.105 L 89.946,41.646 c 0,-5.51 -3.216,-10.271 -7.86,-12.542 v -8.729 c 0,-0.599 -0.484,-1.083 -1.083,-1.083 H 16.239 c -0.598,0 -1.083,0.484 -1.083,1.083 v 11.653 c -4.624,2.461 -7.782,7.326 -7.782,12.92 0,5.62 3.188,10.503 7.848,12.954 0.14,0.438 0.533,0.759 1.017,0.759 h 0.566 c -0.097,0.192 -0.213,0.376 -0.389,0.547 -1.497,1.457 -5.252,1.704 -6.685,1.658 -0.251,0.024 -2.504,0.29 -4.01,2.256 z m 74.2,-41.664 v 1.968 h -62.6 v -1.968 h 62.6 z M 46.794,65.033 c -4.933,3.446 -12.512,1.622 -12.586,1.603 -0.586,-0.142 -1.169,0.212 -1.313,0.789 -0.144,0.581 0.209,1.167 0.789,1.312 0.057,0.013 0.34,0.08 0.768,0.161 H 7.973 c -0.418,0 -0.822,0.063 -1.211,0.156 C 6.76,68.994 6.777,68.94 6.766,68.88 6.434,66.961 6.658,65.468 7.432,64.449 8.358,63.226 9.838,63.032 9.81,63.026 c 0.594,0.025 5.702,0.083 8.114,-2.264 0.455,-0.444 0.778,-0.958 0.987,-1.516 1,0.216 2.034,0.336 3.095,0.336 1.62,0 3.173,-0.275 4.632,-0.763 0.182,0.725 0.552,1.389 1.121,1.943 2.42,2.355 7.552,2.285 8.091,2.264 0.359,0 8.408,-0.065 10.565,-5.425 l 4.448,0.478 c -0.543,3.11 -1.908,5.447 -4.069,6.954 z M 28.878,58.661 h 14.104 c -2.58,2.148 -7.081,2.201 -7.161,2.201 -1.328,0.034 -5.06,-0.196 -6.554,-1.653 -0.176,-0.171 -0.292,-0.355 -0.389,-0.548 z M 62.64,63.386 H 51.166 c 0.823,-1.353 1.388,-2.938 1.726,-4.725 h 9.764 l 0.049,4.412 c -0.03,0.089 -0.042,0.21 -0.065,0.313 z M 56.889,33.301 c -4.271,0 -7.744,3.474 -7.744,7.742 0,4.271 3.474,7.744 7.744,7.744 2.225,0 4.218,-0.958 5.632,-2.465 l 0.11,10.173 h -9.668 c -0.013,-0.017 -0.015,-0.038 -0.027,-0.053 -0.18,-0.224 -0.442,-0.368 -0.728,-0.397 l -6.434,-0.689 c -0.552,-0.061 -1.034,0.292 -1.167,0.814 -0.03,0.116 -0.079,0.216 -0.114,0.326 H 30.962 c 3.444,-2.679 5.675,-6.854 5.675,-11.548 0,-1.653 -0.288,-3.235 -0.795,-4.719 0.104,-0.165 0.18,-0.351 0.18,-0.562 0,-0.512 -0.362,-0.919 -0.837,-1.034 -0.07,-0.144 -0.135,-0.292 -0.211,-0.436 0.152,-0.455 0.009,-0.966 -0.41,-1.241 -0.129,-0.086 -0.271,-0.14 -0.417,-0.163 -2.63,-3.903 -7.089,-6.476 -12.14,-6.476 -1.641,0 -3.211,0.283 -4.685,0.782 V 25.59 h 62.6 v 2.664 c -1.252,-0.37 -2.575,-0.577 -3.945,-0.577 -6.102,0 -11.002,3.613 -12.78,8.905 -1.405,-1.978 -3.703,-3.281 -6.308,-3.281 z m 5.575,7.732 c 0,0.009 0,0.015 0,0.023 v 0.006 c -0.011,3.067 -2.506,5.56 -5.575,5.56 -3.076,0 -5.579,-2.503 -5.579,-5.579 0,-3.076 2.503,-5.577 5.579,-5.577 3.072,0 5.571,2.495 5.575,5.567 z M 94.01,71.636 c -0.002,0.007 0.002,0.013 0,0.02 H 63.09 c -0.472,0 -0.92,0.082 -1.354,0.2 -0.076,-1.365 0.18,-2.471 0.789,-3.274 0.405,-0.535 0.913,-0.865 1.37,-1.076 1.483,1.459 4.102,2.269 7.744,2.387 0.192,0.027 4.761,0.693 9.363,0.693 3.436,0 5.998,-0.38 7.726,-1.184 0.1,-0.062 1.559,-0.991 2.383,-3.573 0.486,0.108 1.522,0.439 2.232,1.379 0.776,1.018 0.999,2.508 0.667,4.428 z"
   id="path5"
   inkscape:connector-curvature="0" />
	<path
   d="m 38.106,31.583 c 0.497,0.332 1.169,0.19 1.499,-0.307 l 0.26,-0.391 0.245,0.399 c 0.205,0.332 0.56,0.514 0.922,0.514 0.194,0 0.391,-0.053 0.568,-0.161 0.508,-0.315 0.666,-0.981 0.354,-1.49 l -1.138,-1.844 c -0.194,-0.315 -0.535,-0.507 -0.905,-0.514 -0.418,-0.002 -0.719,0.175 -0.92,0.486 L 37.8,30.083 c -0.33,0.499 -0.193,1.171 0.306,1.5 z"
   id="path7"
   inkscape:connector-curvature="0" />
	<path
   d="m 37.72,32.17 c -0.501,-0.334 -1.171,-0.192 -1.499,0.307 l -1.58,2.394 c -0.33,0.499 -0.192,1.171 0.307,1.499 0.184,0.123 0.391,0.18 0.596,0.18 0.351,0 0.696,-0.171 0.903,-0.486 l 1.58,-2.394 c 0.329,-0.5 0.192,-1.172 -0.307,-1.5 z"
   id="path9"
   inkscape:connector-curvature="0" />
	<path
   d="m 41.24,38.584 h -3.15 c -0.598,0 -1.082,0.484 -1.082,1.083 0,0.599 0.484,1.083 1.082,1.083 h 3.15 c 0.598,0 1.083,-0.484 1.083,-1.083 0,-0.599 -0.485,-1.083 -1.083,-1.083 z"
   id="path11"
   inkscape:connector-curvature="0" />
	<path
   d="m 46.339,37.255 c -0.315,-0.512 -0.981,-0.662 -1.491,-0.353 -0.507,0.315 -0.666,0.981 -0.353,1.49 l 0.119,0.192 H 44.39 c -0.599,0 -1.083,0.484 -1.083,1.083 0,0.599 0.484,1.083 1.083,1.083 h 2.165 c 0.394,0 0.755,-0.211 0.945,-0.556 0.192,-0.342 0.182,-0.761 -0.023,-1.095 l -1.138,-1.844 z"
   id="path13"
   inkscape:connector-curvature="0" />
	<path
   d="m 44.525,36.377 c 0.509,-0.315 0.666,-0.981 0.353,-1.491 l -1.463,-2.37 c -0.315,-0.511 -0.983,-0.66 -1.491,-0.353 -0.51,0.315 -0.666,0.981 -0.353,1.491 l 1.463,2.37 c 0.205,0.332 0.561,0.514 0.922,0.514 0.195,0 0.392,-0.053 0.569,-0.161 z"
   id="path15"
   inkscape:connector-curvature="0" />
</g>
</svg>